<mxfile host="app.diagrams.net" agent="Mozilla/5.0 (Windows NT 10.0; Win64; x64) AppleWebKit/537.36 (KHTML, like Gecko) Chrome/136.0.0.0 Safari/537.36 Edg/136.0.0.0" version="27.0.3">
  <diagram name="Trang-1" id="PuUgbfHuI1yTcIs1FRKp">
    <mxGraphModel dx="1492" dy="570" grid="1" gridSize="10" guides="1" tooltips="1" connect="1" arrows="1" fold="1" page="1" pageScale="1" pageWidth="827" pageHeight="1169" math="0" shadow="0">
      <root>
        <mxCell id="0" />
        <mxCell id="1" parent="0" />
        <mxCell id="GiVjyYhz7vawqgTPHRzL-1" value="Sách" style="rounded=1;whiteSpace=wrap;html=1;" vertex="1" parent="1">
          <mxGeometry x="60" y="360" width="120" height="60" as="geometry" />
        </mxCell>
        <mxCell id="GiVjyYhz7vawqgTPHRzL-2" value="&lt;b&gt;&lt;u&gt;Mã Sách&lt;/u&gt;&lt;/b&gt;" style="text;html=1;align=center;verticalAlign=middle;whiteSpace=wrap;rounded=0;" vertex="1" parent="1">
          <mxGeometry x="230" y="340" width="60" height="30" as="geometry" />
        </mxCell>
        <mxCell id="GiVjyYhz7vawqgTPHRzL-3" value="Tên Sách" style="text;html=1;align=center;verticalAlign=middle;whiteSpace=wrap;rounded=0;" vertex="1" parent="1">
          <mxGeometry x="230" y="375" width="60" height="30" as="geometry" />
        </mxCell>
        <mxCell id="GiVjyYhz7vawqgTPHRzL-4" value="Tác Giả" style="text;html=1;align=center;verticalAlign=middle;whiteSpace=wrap;rounded=0;" vertex="1" parent="1">
          <mxGeometry x="230" y="420" width="60" height="30" as="geometry" />
        </mxCell>
        <mxCell id="GiVjyYhz7vawqgTPHRzL-5" value="NXB" style="text;html=1;align=center;verticalAlign=middle;whiteSpace=wrap;rounded=0;" vertex="1" parent="1">
          <mxGeometry x="230" y="460" width="60" height="30" as="geometry" />
        </mxCell>
        <mxCell id="GiVjyYhz7vawqgTPHRzL-6" value="Năm Xuất Bản" style="text;html=1;align=center;verticalAlign=middle;whiteSpace=wrap;rounded=0;" vertex="1" parent="1">
          <mxGeometry x="230" y="500" width="60" height="30" as="geometry" />
        </mxCell>
        <mxCell id="GiVjyYhz7vawqgTPHRzL-7" value="Thể Loại" style="text;html=1;align=center;verticalAlign=middle;whiteSpace=wrap;rounded=0;" vertex="1" parent="1">
          <mxGeometry x="230" y="540" width="60" height="30" as="geometry" />
        </mxCell>
        <mxCell id="GiVjyYhz7vawqgTPHRzL-8" value="Số Lượng" style="text;html=1;align=center;verticalAlign=middle;whiteSpace=wrap;rounded=0;" vertex="1" parent="1">
          <mxGeometry x="230" y="580" width="60" height="30" as="geometry" />
        </mxCell>
        <mxCell id="GiVjyYhz7vawqgTPHRzL-10" value="" style="endArrow=none;html=1;rounded=0;entryX=0;entryY=0.5;entryDx=0;entryDy=0;" edge="1" parent="1" target="GiVjyYhz7vawqgTPHRzL-2">
          <mxGeometry width="50" height="50" relative="1" as="geometry">
            <mxPoint x="180" y="390" as="sourcePoint" />
            <mxPoint x="230" y="340" as="targetPoint" />
          </mxGeometry>
        </mxCell>
        <mxCell id="GiVjyYhz7vawqgTPHRzL-11" value="" style="endArrow=none;html=1;rounded=0;entryX=0;entryY=0.5;entryDx=0;entryDy=0;exitX=1;exitY=0.5;exitDx=0;exitDy=0;" edge="1" parent="1" source="GiVjyYhz7vawqgTPHRzL-1" target="GiVjyYhz7vawqgTPHRzL-3">
          <mxGeometry width="50" height="50" relative="1" as="geometry">
            <mxPoint x="180" y="415" as="sourcePoint" />
            <mxPoint x="230" y="365" as="targetPoint" />
          </mxGeometry>
        </mxCell>
        <mxCell id="GiVjyYhz7vawqgTPHRzL-12" value="" style="endArrow=none;html=1;rounded=0;exitX=1;exitY=0.5;exitDx=0;exitDy=0;entryX=0;entryY=0.5;entryDx=0;entryDy=0;" edge="1" parent="1" source="GiVjyYhz7vawqgTPHRzL-1" target="GiVjyYhz7vawqgTPHRzL-4">
          <mxGeometry width="50" height="50" relative="1" as="geometry">
            <mxPoint x="190" y="480" as="sourcePoint" />
            <mxPoint x="240" y="430" as="targetPoint" />
          </mxGeometry>
        </mxCell>
        <mxCell id="GiVjyYhz7vawqgTPHRzL-13" value="" style="endArrow=none;html=1;rounded=0;entryX=0;entryY=0.5;entryDx=0;entryDy=0;exitX=1;exitY=0.5;exitDx=0;exitDy=0;" edge="1" parent="1" source="GiVjyYhz7vawqgTPHRzL-1" target="GiVjyYhz7vawqgTPHRzL-5">
          <mxGeometry width="50" height="50" relative="1" as="geometry">
            <mxPoint x="180" y="500" as="sourcePoint" />
            <mxPoint x="230" y="450" as="targetPoint" />
          </mxGeometry>
        </mxCell>
        <mxCell id="GiVjyYhz7vawqgTPHRzL-14" value="" style="endArrow=none;html=1;rounded=0;exitX=1;exitY=0.5;exitDx=0;exitDy=0;entryX=0;entryY=0.5;entryDx=0;entryDy=0;" edge="1" parent="1" source="GiVjyYhz7vawqgTPHRzL-1" target="GiVjyYhz7vawqgTPHRzL-6">
          <mxGeometry width="50" height="50" relative="1" as="geometry">
            <mxPoint x="180" y="550" as="sourcePoint" />
            <mxPoint x="230" y="500" as="targetPoint" />
          </mxGeometry>
        </mxCell>
        <mxCell id="GiVjyYhz7vawqgTPHRzL-15" value="" style="endArrow=none;html=1;rounded=0;exitX=1;exitY=0.5;exitDx=0;exitDy=0;entryX=0;entryY=0.5;entryDx=0;entryDy=0;" edge="1" parent="1" source="GiVjyYhz7vawqgTPHRzL-1" target="GiVjyYhz7vawqgTPHRzL-7">
          <mxGeometry width="50" height="50" relative="1" as="geometry">
            <mxPoint x="180" y="570" as="sourcePoint" />
            <mxPoint x="230" y="520" as="targetPoint" />
          </mxGeometry>
        </mxCell>
        <mxCell id="GiVjyYhz7vawqgTPHRzL-16" value="" style="endArrow=none;html=1;rounded=0;entryX=0;entryY=0.5;entryDx=0;entryDy=0;exitX=1;exitY=0.5;exitDx=0;exitDy=0;" edge="1" parent="1" source="GiVjyYhz7vawqgTPHRzL-1" target="GiVjyYhz7vawqgTPHRzL-8">
          <mxGeometry width="50" height="50" relative="1" as="geometry">
            <mxPoint x="180" y="640" as="sourcePoint" />
            <mxPoint x="230" y="590" as="targetPoint" />
          </mxGeometry>
        </mxCell>
        <mxCell id="GiVjyYhz7vawqgTPHRzL-17" value="Mượn" style="rhombus;whiteSpace=wrap;html=1;" vertex="1" parent="1">
          <mxGeometry x="80" y="630" width="80" height="80" as="geometry" />
        </mxCell>
        <mxCell id="GiVjyYhz7vawqgTPHRzL-18" value="" style="endArrow=none;html=1;rounded=0;entryX=0.5;entryY=1;entryDx=0;entryDy=0;" edge="1" parent="1" target="GiVjyYhz7vawqgTPHRzL-1">
          <mxGeometry width="50" height="50" relative="1" as="geometry">
            <mxPoint x="120" y="630" as="sourcePoint" />
            <mxPoint x="170" y="580" as="targetPoint" />
          </mxGeometry>
        </mxCell>
        <mxCell id="GiVjyYhz7vawqgTPHRzL-19" value="Đọc Giả" style="rounded=1;whiteSpace=wrap;html=1;" vertex="1" parent="1">
          <mxGeometry x="580" y="645" width="120" height="60" as="geometry" />
        </mxCell>
        <mxCell id="GiVjyYhz7vawqgTPHRzL-20" value="&lt;b&gt;&lt;u&gt;&lt;font style=&quot;font-size: 16px;&quot;&gt;Bài 2&lt;/font&gt;&lt;/u&gt;&lt;/b&gt;" style="text;html=1;align=center;verticalAlign=middle;whiteSpace=wrap;rounded=0;" vertex="1" parent="1">
          <mxGeometry x="540" y="365" width="80" height="50" as="geometry" />
        </mxCell>
        <mxCell id="GiVjyYhz7vawqgTPHRzL-21" value="" style="endArrow=none;html=1;rounded=0;entryX=0;entryY=0.5;entryDx=0;entryDy=0;" edge="1" parent="1" source="GiVjyYhz7vawqgTPHRzL-64" target="GiVjyYhz7vawqgTPHRzL-19">
          <mxGeometry width="50" height="50" relative="1" as="geometry">
            <mxPoint x="160" y="670" as="sourcePoint" />
            <mxPoint x="210" y="620" as="targetPoint" />
          </mxGeometry>
        </mxCell>
        <mxCell id="GiVjyYhz7vawqgTPHRzL-22" value="&lt;b&gt;&lt;u&gt;Mã Đọc Giả&lt;/u&gt;&lt;/b&gt;" style="text;html=1;align=center;verticalAlign=middle;whiteSpace=wrap;rounded=0;" vertex="1" parent="1">
          <mxGeometry x="750" y="625" width="60" height="30" as="geometry" />
        </mxCell>
        <mxCell id="GiVjyYhz7vawqgTPHRzL-23" value="Họ Tên" style="text;html=1;align=center;verticalAlign=middle;whiteSpace=wrap;rounded=0;" vertex="1" parent="1">
          <mxGeometry x="750" y="660" width="60" height="30" as="geometry" />
        </mxCell>
        <mxCell id="GiVjyYhz7vawqgTPHRzL-24" value="Ngày Sinh" style="text;html=1;align=center;verticalAlign=middle;whiteSpace=wrap;rounded=0;" vertex="1" parent="1">
          <mxGeometry x="750" y="705" width="60" height="30" as="geometry" />
        </mxCell>
        <mxCell id="GiVjyYhz7vawqgTPHRzL-25" value="Địa Chỉ" style="text;html=1;align=center;verticalAlign=middle;whiteSpace=wrap;rounded=0;" vertex="1" parent="1">
          <mxGeometry x="750" y="745" width="60" height="30" as="geometry" />
        </mxCell>
        <mxCell id="GiVjyYhz7vawqgTPHRzL-26" value="SĐT" style="text;html=1;align=center;verticalAlign=middle;whiteSpace=wrap;rounded=0;" vertex="1" parent="1">
          <mxGeometry x="750" y="785" width="60" height="30" as="geometry" />
        </mxCell>
        <mxCell id="GiVjyYhz7vawqgTPHRzL-27" value="" style="endArrow=none;html=1;rounded=0;entryX=0;entryY=0.5;entryDx=0;entryDy=0;" edge="1" parent="1" target="GiVjyYhz7vawqgTPHRzL-22">
          <mxGeometry width="50" height="50" relative="1" as="geometry">
            <mxPoint x="700" y="675" as="sourcePoint" />
            <mxPoint x="750" y="625" as="targetPoint" />
          </mxGeometry>
        </mxCell>
        <mxCell id="GiVjyYhz7vawqgTPHRzL-28" value="" style="endArrow=none;html=1;rounded=0;entryX=0;entryY=0.5;entryDx=0;entryDy=0;" edge="1" parent="1" target="GiVjyYhz7vawqgTPHRzL-23">
          <mxGeometry width="50" height="50" relative="1" as="geometry">
            <mxPoint x="700" y="675" as="sourcePoint" />
            <mxPoint x="750" y="625" as="targetPoint" />
          </mxGeometry>
        </mxCell>
        <mxCell id="GiVjyYhz7vawqgTPHRzL-29" value="" style="endArrow=none;html=1;rounded=0;exitX=1;exitY=0.5;exitDx=0;exitDy=0;entryX=0;entryY=0.5;entryDx=0;entryDy=0;" edge="1" parent="1" source="GiVjyYhz7vawqgTPHRzL-19" target="GiVjyYhz7vawqgTPHRzL-24">
          <mxGeometry width="50" height="50" relative="1" as="geometry">
            <mxPoint x="700" y="765" as="sourcePoint" />
            <mxPoint x="750" y="715" as="targetPoint" />
          </mxGeometry>
        </mxCell>
        <mxCell id="GiVjyYhz7vawqgTPHRzL-30" value="" style="endArrow=none;html=1;rounded=0;exitX=1;exitY=0.5;exitDx=0;exitDy=0;entryX=0;entryY=0.5;entryDx=0;entryDy=0;" edge="1" parent="1" source="GiVjyYhz7vawqgTPHRzL-19" target="GiVjyYhz7vawqgTPHRzL-25">
          <mxGeometry width="50" height="50" relative="1" as="geometry">
            <mxPoint x="700" y="805" as="sourcePoint" />
            <mxPoint x="750" y="755" as="targetPoint" />
          </mxGeometry>
        </mxCell>
        <mxCell id="GiVjyYhz7vawqgTPHRzL-31" value="" style="endArrow=none;html=1;rounded=0;exitX=1;exitY=0.5;exitDx=0;exitDy=0;entryX=0;entryY=0.5;entryDx=0;entryDy=0;" edge="1" parent="1" source="GiVjyYhz7vawqgTPHRzL-19" target="GiVjyYhz7vawqgTPHRzL-26">
          <mxGeometry width="50" height="50" relative="1" as="geometry">
            <mxPoint x="710" y="625" as="sourcePoint" />
            <mxPoint x="760" y="575" as="targetPoint" />
          </mxGeometry>
        </mxCell>
        <mxCell id="GiVjyYhz7vawqgTPHRzL-32" value="&lt;b&gt;n : n&lt;/b&gt;" style="text;html=1;align=center;verticalAlign=middle;whiteSpace=wrap;rounded=0;" vertex="1" parent="1">
          <mxGeometry x="160" y="625" width="60" height="30" as="geometry" />
        </mxCell>
        <mxCell id="GiVjyYhz7vawqgTPHRzL-44" value="Ngày Trả" style="text;html=1;align=center;verticalAlign=middle;whiteSpace=wrap;rounded=0;" vertex="1" parent="1">
          <mxGeometry x="170" y="735" width="60" height="30" as="geometry" />
        </mxCell>
        <mxCell id="GiVjyYhz7vawqgTPHRzL-45" value="Tình Trạng" style="text;html=1;align=center;verticalAlign=middle;whiteSpace=wrap;rounded=0;" vertex="1" parent="1">
          <mxGeometry x="510" y="735" width="60" height="30" as="geometry" />
        </mxCell>
        <mxCell id="GiVjyYhz7vawqgTPHRzL-47" value="SL Mượn" style="text;html=1;align=center;verticalAlign=middle;whiteSpace=wrap;rounded=0;" vertex="1" parent="1">
          <mxGeometry x="240" y="735" width="60" height="30" as="geometry" />
        </mxCell>
        <mxCell id="GiVjyYhz7vawqgTPHRzL-48" value="" style="endArrow=none;html=1;rounded=0;exitX=0.5;exitY=0;exitDx=0;exitDy=0;" edge="1" parent="1" source="GiVjyYhz7vawqgTPHRzL-44">
          <mxGeometry width="50" height="50" relative="1" as="geometry">
            <mxPoint x="70" y="760" as="sourcePoint" />
            <mxPoint x="380" y="700" as="targetPoint" />
          </mxGeometry>
        </mxCell>
        <mxCell id="GiVjyYhz7vawqgTPHRzL-49" value="" style="endArrow=none;html=1;rounded=0;exitX=0.5;exitY=0;exitDx=0;exitDy=0;entryX=0.583;entryY=1;entryDx=0;entryDy=0;entryPerimeter=0;" edge="1" parent="1" source="GiVjyYhz7vawqgTPHRzL-45" target="GiVjyYhz7vawqgTPHRzL-52">
          <mxGeometry width="50" height="50" relative="1" as="geometry">
            <mxPoint x="70" y="760" as="sourcePoint" />
            <mxPoint x="120" y="710" as="targetPoint" />
          </mxGeometry>
        </mxCell>
        <mxCell id="GiVjyYhz7vawqgTPHRzL-50" value="" style="endArrow=none;html=1;rounded=0;exitX=0.5;exitY=0;exitDx=0;exitDy=0;entryX=0.58;entryY=1.033;entryDx=0;entryDy=0;entryPerimeter=0;" edge="1" parent="1" source="GiVjyYhz7vawqgTPHRzL-47" target="GiVjyYhz7vawqgTPHRzL-52">
          <mxGeometry width="50" height="50" relative="1" as="geometry">
            <mxPoint x="70" y="760" as="sourcePoint" />
            <mxPoint x="120" y="710" as="targetPoint" />
          </mxGeometry>
        </mxCell>
        <mxCell id="GiVjyYhz7vawqgTPHRzL-52" value="Phiếu Mượn" style="rounded=1;whiteSpace=wrap;html=1;" vertex="1" parent="1">
          <mxGeometry x="310" y="640" width="120" height="60" as="geometry" />
        </mxCell>
        <mxCell id="GiVjyYhz7vawqgTPHRzL-54" value="&lt;u&gt;&lt;b&gt;Mã Phiếu Mượn&lt;/b&gt;&lt;/u&gt;" style="text;html=1;align=center;verticalAlign=middle;whiteSpace=wrap;rounded=0;" vertex="1" parent="1">
          <mxGeometry x="310" y="735" width="60" height="30" as="geometry" />
        </mxCell>
        <mxCell id="GiVjyYhz7vawqgTPHRzL-55" value="Mã Đọc Giả" style="text;html=1;align=center;verticalAlign=middle;whiteSpace=wrap;rounded=0;" vertex="1" parent="1">
          <mxGeometry x="384" y="735" width="60" height="30" as="geometry" />
        </mxCell>
        <mxCell id="GiVjyYhz7vawqgTPHRzL-56" value="Ngày Mượn" style="text;html=1;align=center;verticalAlign=middle;whiteSpace=wrap;rounded=0;" vertex="1" parent="1">
          <mxGeometry x="440" y="735" width="60" height="30" as="geometry" />
        </mxCell>
        <mxCell id="GiVjyYhz7vawqgTPHRzL-58" value="" style="endArrow=none;html=1;rounded=0;exitX=0.5;exitY=0;exitDx=0;exitDy=0;" edge="1" parent="1" source="GiVjyYhz7vawqgTPHRzL-55">
          <mxGeometry width="50" height="50" relative="1" as="geometry">
            <mxPoint x="380" y="730" as="sourcePoint" />
            <mxPoint x="380" y="700" as="targetPoint" />
          </mxGeometry>
        </mxCell>
        <mxCell id="GiVjyYhz7vawqgTPHRzL-60" value="" style="endArrow=none;html=1;rounded=0;exitX=0.5;exitY=0;exitDx=0;exitDy=0;" edge="1" parent="1" source="GiVjyYhz7vawqgTPHRzL-54">
          <mxGeometry width="50" height="50" relative="1" as="geometry">
            <mxPoint x="330" y="750" as="sourcePoint" />
            <mxPoint x="380" y="700" as="targetPoint" />
          </mxGeometry>
        </mxCell>
        <mxCell id="GiVjyYhz7vawqgTPHRzL-63" value="" style="endArrow=none;html=1;rounded=0;exitX=0.5;exitY=0;exitDx=0;exitDy=0;" edge="1" parent="1" source="GiVjyYhz7vawqgTPHRzL-56">
          <mxGeometry width="50" height="50" relative="1" as="geometry">
            <mxPoint x="330" y="750" as="sourcePoint" />
            <mxPoint x="380" y="700" as="targetPoint" />
          </mxGeometry>
        </mxCell>
        <mxCell id="GiVjyYhz7vawqgTPHRzL-65" value="" style="endArrow=none;html=1;rounded=0;" edge="1" parent="1">
          <mxGeometry width="50" height="50" relative="1" as="geometry">
            <mxPoint x="160" y="670" as="sourcePoint" />
            <mxPoint x="310" y="670" as="targetPoint" />
          </mxGeometry>
        </mxCell>
        <mxCell id="GiVjyYhz7vawqgTPHRzL-64" value="Sở Hữu" style="rhombus;whiteSpace=wrap;html=1;" vertex="1" parent="1">
          <mxGeometry x="470" y="630" width="80" height="80" as="geometry" />
        </mxCell>
        <mxCell id="GiVjyYhz7vawqgTPHRzL-66" value="&lt;b&gt;1 : 1&lt;/b&gt;" style="text;html=1;align=center;verticalAlign=middle;whiteSpace=wrap;rounded=0;" vertex="1" parent="1">
          <mxGeometry x="430" y="630" width="60" height="30" as="geometry" />
        </mxCell>
        <mxCell id="GiVjyYhz7vawqgTPHRzL-67" value="" style="endArrow=none;html=1;rounded=0;exitX=1;exitY=0.5;exitDx=0;exitDy=0;" edge="1" parent="1" source="GiVjyYhz7vawqgTPHRzL-52">
          <mxGeometry width="50" height="50" relative="1" as="geometry">
            <mxPoint x="420" y="720" as="sourcePoint" />
            <mxPoint x="470" y="670" as="targetPoint" />
          </mxGeometry>
        </mxCell>
        <mxCell id="GiVjyYhz7vawqgTPHRzL-70" value="Mã Sách" style="text;html=1;align=center;verticalAlign=middle;whiteSpace=wrap;rounded=0;" vertex="1" parent="1">
          <mxGeometry x="100" y="735" width="60" height="30" as="geometry" />
        </mxCell>
        <mxCell id="GiVjyYhz7vawqgTPHRzL-71" value="" style="endArrow=none;html=1;rounded=0;entryX=0.583;entryY=1;entryDx=0;entryDy=0;entryPerimeter=0;exitX=0.5;exitY=0;exitDx=0;exitDy=0;" edge="1" parent="1" source="GiVjyYhz7vawqgTPHRzL-70" target="GiVjyYhz7vawqgTPHRzL-52">
          <mxGeometry width="50" height="50" relative="1" as="geometry">
            <mxPoint x="130" y="730" as="sourcePoint" />
            <mxPoint x="180" y="680" as="targetPoint" />
          </mxGeometry>
        </mxCell>
      </root>
    </mxGraphModel>
  </diagram>
</mxfile>
